<svg width="34" height="34" viewBox="0 0 34 34" fill="none" xmlns="http://www.w3.org/2000/svg">
<path d="M17 30.75C9.40608 30.75 3.25 24.5939 3.25 17C3.25 9.40608 9.40608 3.25 17 3.25C24.5939 3.25 30.75 9.40608 30.75 17C30.75 24.5939 24.5939 30.75 17 30.75ZM15.1051 12.0701C15.0148 12.0098 14.9086 11.9777 14.8 11.9777C14.4963 11.9777 14.25 12.2239 14.25 12.5277V21.4723C14.25 21.581 14.2822 21.6871 14.3424 21.7774C14.5108 22.0302 14.8524 22.0985 15.1051 21.9299L21.8136 17.4576C21.874 17.4173 21.9258 17.3655 21.9661 17.3051C22.1347 17.0524 22.0663 16.7108 21.8136 16.5424L15.1051 12.0701Z" fill="black"/>
</svg>
